<svg width="100" height="100" viewBox="0 0 100 100" fill="none" xmlns="http://www.w3.org/2000/svg">
<path d="M50 100C77.6142 100 100 77.6142 100 50C100 22.3858 77.6142 0 50 0C22.3858 0 0 22.3858 0 50C0 77.6142 22.3858 100 50 100Z" fill="#8C8C8C"/>
<path d="M64 65.5H50C46.1395 65.5 43 62.0241 43 57.75V53.875H64C67.864 53.875 71 50.403 71 46.125C71 41.847 67.864 38.375 64 38.375H43V26.75C43 22.472 39.864 19 36 19C32.136 19 29 22.472 29 26.75V57.75C29 70.5724 38.4185 81 50 81H64C67.864 81 71 77.528 71 73.25C71 68.972 67.864 65.5 64 65.5Z" fill="white"/>
</svg>
