<svg width="100" height="100" viewBox="0 0 100 100" fill="none" xmlns="http://www.w3.org/2000/svg">
<path d="M49.9998 0C77.6156 0 100 22.3875 100 50.0002C100 77.6129 77.6156 100 49.9998 100C22.3841 100 0 77.6125 0 50.0002C0 22.3878 22.3844 0 49.9998 0Z" fill="#717171"/>
<path d="M28.1749 68.7H37.5375V37.4936H28.1749V68.7ZM64.6501 36.4127C60.1063 36.4127 56.0406 38.072 53.1565 41.7347V37.391H43.7596V68.7003H53.1565V51.769C53.1565 48.1908 56.4347 44.7001 60.5408 44.7001C64.647 44.7001 65.6596 48.1908 65.6596 51.6815V68.6972H75.0222V50.9847C75.0219 38.6813 69.197 36.4127 64.6501 36.4127ZM32.8125 34.375C35.4 34.375 37.5001 32.2749 37.5001 29.6874C37.5001 27.0999 35.4 25.0001 32.8125 25.0001C30.2249 25.0001 28.1248 27.1002 28.1248 29.6877C28.1248 32.2753 30.2249 34.375 32.8125 34.375Z" fill="white"/>
</svg>
