<svg width="100" height="100" viewBox="0 0 100 100" fill="none" xmlns="http://www.w3.org/2000/svg">
<path d="M49.9998 0C77.6156 0 100 22.3875 100 50.0002C100 77.6129 77.6156 100 49.9998 100C22.3841 100 0 77.6125 0 50.0002C0 22.3878 22.3844 0 49.9998 0Z" fill="#B4B4B4"/>
<g clip-path="url(#clip0)">
<path d="M29.0834 23C28.4854 23 28 23.4854 28 24.0834V32.75C28 33.348 28.4854 33.8334 29.0834 33.8334C51.1855 33.8334 69.1667 51.8145 69.1667 73.9167C69.1667 74.5147 69.6521 75.0001 70.2501 75.0001H78.9167C79.5147 75.0001 80.0001 74.5147 80.0001 73.9167C80 45.841 57.159 23 29.0834 23Z" fill="white"/>
<path d="M29.0834 40.3334C28.4854 40.3334 28 40.8186 28 41.4166V50.0833C28 50.6813 28.4854 51.1666 29.0834 51.1666C41.6284 51.1666 51.8334 61.3716 51.8334 73.9166C51.8334 74.5146 52.3187 75 52.9167 75H61.5834C62.1814 75 62.6667 74.5146 62.6667 73.9166C62.6666 55.3981 47.6019 40.3334 29.0834 40.3334Z" fill="white"/>
<path d="M35.5834 75C39.7715 75 43.1667 71.6048 43.1667 67.4166C43.1667 63.2285 39.7715 59.8333 35.5834 59.8333C31.3952 59.8333 28 63.2285 28 67.4166C28 71.6048 31.3952 75 35.5834 75Z" fill="white"/>
</g>
<defs>
<clipPath id="clip0">
<rect width="52" height="52" fill="white" transform="translate(28 23)"/>
</clipPath>
</defs>
</svg>
