<svg width="100" height="94" viewBox="0 0 100 94" fill="none" xmlns="http://www.w3.org/2000/svg">
<path d="M99.3072 24.5986C98.7465 23.9406 97.9281 23.5629 97.0699 23.5629H23.6628L17.8658 2.28564C17.5167 1.00966 16.3609 0.125488 15.039 0.125488H2.92968C1.31035 0.125488 0 1.43583 0 3.05516C0 4.67449 1.31035 5.98484 2.92968 5.98484H12.8017C35.0313 87.4281 27.3643 59.3381 29.0229 65.4149C25.9483 66.7959 23.828 69.8104 23.828 73.3674C23.828 77.4189 26.5972 80.8043 30.3325 81.8174C29.9245 82.8299 29.6874 83.9291 29.6874 85.0861C29.6874 89.9326 33.6299 93.8751 38.4764 93.8751C43.3229 93.8751 47.2654 89.9326 47.2654 85.0861C47.2654 84.0541 47.0541 83.0773 46.7258 82.1564H71.2425C70.9142 83.0773 70.7028 84.0541 70.7028 85.0861C70.7028 89.9326 74.6454 93.8751 79.4919 93.8751C84.3383 93.8751 88.2809 89.9326 88.2809 85.0861C88.2809 80.2396 84.3383 76.2971 79.4919 76.2971H32.6171C31.0034 76.2971 29.6874 74.9838 29.6874 73.3674C29.6874 70.6383 33.2044 70.0631 32.6171 70.3805C33.203 70.3805 35.1838 70.1356 91.4967 64.5641C92.8186 64.4325 93.8828 63.437 94.1002 62.1293L99.9596 26.9732C100.103 26.1234 99.8623 25.2566 99.3072 24.5986ZM41.4061 85.0861C41.4061 86.7025 40.0901 88.0158 38.4764 88.0158C36.8627 88.0158 35.5467 86.7025 35.5467 85.0861C35.5467 83.4697 36.8627 82.1564 38.4764 82.1564C40.0901 82.1564 41.4061 83.4697 41.4061 85.0861ZM79.4919 88.0158C77.8782 88.0158 76.5622 86.7025 76.5622 85.0861C76.5622 83.4697 77.8782 82.1564 79.4919 82.1564C81.1055 82.1564 82.4216 83.4697 82.4216 85.0861C82.4216 86.7025 81.1055 88.0158 79.4919 88.0158ZM47.2654 49.93C47.2654 51.5493 45.9551 52.8597 44.3358 52.8597C42.7164 52.8597 41.4061 51.5493 41.4061 49.93V38.2113C41.4061 36.5919 42.7164 35.2816 44.3358 35.2816C45.9551 35.2816 47.2654 36.5919 47.2654 38.2113V49.93ZM64.8435 49.93C64.8435 51.5493 63.5332 52.8597 61.9138 52.8597C60.2945 52.8597 58.9841 51.5493 58.9841 49.93V38.2113C58.9841 36.5919 60.2945 35.2816 61.9138 35.2816C63.5332 35.2816 64.8435 36.5919 64.8435 38.2113V49.93ZM82.4216 49.93C82.4216 51.5493 81.1112 52.8597 79.4919 52.8597C77.8725 52.8597 76.5622 51.5493 76.5622 49.93V38.2113C76.5622 36.5919 77.8725 35.2816 79.4919 35.2816C81.1112 35.2816 82.4216 36.5919 82.4216 38.2113V49.93Z" fill="#636363"/>
</svg>
