<svg width="100" height="100" viewBox="0 0 100 100" fill="none" xmlns="http://www.w3.org/2000/svg">
<g clip-path="url(#clip0)">
<path d="M75.5252 59.4537C68.5747 59.4537 62.9202 65.1082 62.9202 72.0588C62.9202 79.0094 68.5747 84.6639 75.5252 84.6639C82.477 84.6639 88.1303 79.0094 88.1303 72.0588C88.1303 65.1082 82.4758 59.4537 75.5252 59.4537ZM75.5252 78.3613C72.0495 78.3613 69.2227 75.5346 69.2227 72.0588C69.2227 68.583 72.0495 65.7563 75.5252 65.7563C79.001 65.7563 81.8278 68.583 81.8278 72.0588C81.8278 75.5348 79.001 78.3613 75.5252 78.3613Z" fill="#636363"/>
<path d="M32.458 59.4537C25.5074 59.4537 19.8529 65.1082 19.8529 72.0588C19.8529 79.0094 25.5074 84.6639 32.458 84.6639C39.4086 84.6639 45.0631 79.0094 45.0631 72.0588C45.0631 65.1082 39.4086 59.4537 32.458 59.4537ZM32.458 78.3613C28.9822 78.3613 26.1554 75.5346 26.1554 72.0588C26.1554 68.583 28.9822 65.7563 32.458 65.7563C35.9328 65.7563 38.7605 68.583 38.7605 72.0588C38.7605 75.5348 35.9338 78.3613 32.458 78.3613Z" fill="#636363"/>
<path d="M84.0137 23.374C83.478 22.31 82.3887 21.6387 81.1975 21.6387H64.6008V27.9412H79.2541L87.835 45.0084L93.4674 42.1764L84.0137 23.374Z" fill="#636363"/>
<path d="M66.0715 69.0127H42.2269V75.3152H66.0715V69.0127Z" fill="#636363"/>
<path d="M23.0041 69.0127H12.0799C10.3393 69.0127 8.92871 70.4234 8.92871 72.1639C8.92871 73.9045 10.3395 75.315 12.0799 75.315H23.0043C24.7449 75.315 26.1555 73.9043 26.1555 72.1639C26.1555 70.4232 24.7447 69.0127 23.0041 69.0127Z" fill="#636363"/>
<path d="M99.3383 49.7478L93.1398 41.7646C92.5443 40.9957 91.6252 40.5461 90.6514 40.5461H67.7521V18.4873C67.7521 16.7467 66.3414 15.3361 64.601 15.3361H12.0799C10.3393 15.3361 8.92871 16.7469 8.92871 18.4873C8.92871 20.2277 10.3395 21.6385 12.0799 21.6385H61.4496V43.6972C61.4496 45.4379 62.8604 46.8484 64.6008 46.8484H89.1082L93.6975 52.7601V69.0123H84.9789C83.2383 69.0123 81.8277 70.423 81.8277 72.1635C81.8277 73.9041 83.2385 75.3146 84.9789 75.3146H96.8486C98.5893 75.3146 99.9998 73.9039 100 72.1635V51.6807C100 50.981 99.7668 50.3004 99.3383 49.7478Z" fill="#636363"/>
<path d="M22.7942 53.0463H8.29827C6.55764 53.0463 5.14709 54.457 5.14709 56.1974C5.14709 57.9381 6.55784 59.3486 8.29827 59.3486H22.794C24.5346 59.3486 25.9451 57.9379 25.9451 56.1974C25.9453 54.457 24.5346 53.0463 22.7942 53.0463Z" fill="#636363"/>
<path d="M30.042 40.6511H3.15117C1.41074 40.6511 0 42.0619 0 43.8025C0 45.5431 1.41074 46.9537 3.15117 46.9537H30.042C31.7826 46.9537 33.1932 45.5429 33.1932 43.8025C33.1932 42.0621 31.7826 40.6511 30.042 40.6511Z" fill="#636363"/>
<path d="M35.1891 28.2562H8.29827C6.55764 28.2562 5.14709 29.667 5.14709 31.4074C5.14709 33.148 6.55784 34.5586 8.29827 34.5586H35.1891C36.9297 34.5586 38.3403 33.1478 38.3403 31.4074C38.3405 29.667 36.9297 28.2562 35.1891 28.2562Z" fill="#636363"/>
</g>
<defs>
<clipPath id="clip0">
<rect width="100" height="100" fill="white"/>
</clipPath>
</defs>
</svg>
