<svg width="100" height="100" viewBox="0 0 100 100" fill="none" xmlns="http://www.w3.org/2000/svg">
<path d="M49.9113 99.8217C77.4766 99.8217 99.8226 77.4759 99.8226 49.9109C99.8226 22.3459 77.4766 0 49.9113 0C22.3461 0 0 22.3459 0 49.9109C0 77.4759 22.3461 99.8217 49.9113 99.8217Z" fill="#989898"/>
<path d="M54.139 63.9563C50.3657 63.6645 48.7803 61.7934 45.8211 59.9971C44.1947 68.5303 42.207 76.7103 36.3198 80.9836C34.5003 68.0864 38.9872 58.3992 41.0709 48.1168C37.5191 42.138 41.4979 30.1038 48.9893 33.0692C58.2095 36.7152 41.0068 55.3003 52.5553 57.6216C64.6119 60.0452 69.5338 36.7019 62.0566 29.1091C51.2537 18.147 30.6114 28.86 33.1497 44.5527C33.7681 48.3891 37.7327 49.5537 34.7334 54.8475C27.8194 53.3163 25.7571 47.8633 26.0222 40.5935C26.4502 28.6936 36.7148 20.3615 47.0106 19.2084C60.0316 17.7511 72.2528 23.9897 73.9397 36.2375C75.8374 50.0609 68.0613 65.0311 54.139 63.9563Z" fill="white"/>
</svg>
