<svg width="100" height="100" viewBox="0 0 100 100" fill="none" xmlns="http://www.w3.org/2000/svg">
<path d="M49.9998 0C77.6156 0 100 22.3875 100 50.0002C100 77.6129 77.6156 100 49.9998 100C22.3841 100 0 77.6125 0 50.0002C0 22.3878 22.3844 0 49.9998 0Z" fill="#8D8D8D"/>
<path d="M79.9622 51.3889C79.2277 48.6053 76.6174 46.552 73.4757 46.2464C66.0376 45.5216 58.5055 45.5182 51.0102 45.5216C43.5118 45.5182 35.9812 45.5216 28.5408 46.2464C25.4006 46.5527 22.7919 48.606 22.0582 51.3889C21.0125 55.3526 21 59.6793 21 63.7606C21 67.8419 21 72.168 22.0457 76.1317C22.7794 78.9145 25.3881 80.9678 28.5298 81.2741C35.9686 81.9996 43.4992 82.0023 50.9969 81.9996C58.4953 82.003 66.0243 81.9996 73.4655 81.2741C76.6057 80.9678 79.2159 78.9145 79.9496 76.1317C80.9945 72.168 81 67.8419 81 63.7606C80.9992 59.6786 81.0071 55.3526 79.9622 51.3889ZM38.1141 54.4609H33.7715V74.5891H29.7377V54.4609H25.4743V51.1639H38.1141V54.4609ZM49.0701 74.5898H45.4416V72.6856C44.0001 74.1269 42.6315 74.8298 41.2981 74.8298C40.1294 74.8298 39.3251 74.4168 38.9622 73.5327C38.7647 73.0049 38.6424 72.1694 38.6424 70.9372V57.1351H42.2678V69.9861C42.2678 70.7273 42.2678 71.1123 42.3007 71.2162C42.3877 71.7071 42.6628 71.956 43.1488 71.956C43.8763 71.956 44.6366 71.4671 45.4408 70.475V57.1351H49.0693L49.0701 74.5898ZM62.845 69.3509C62.845 70.9653 62.7203 72.1283 62.4781 72.8681C61.9937 74.1666 61.024 74.8298 59.5817 74.8298C58.2915 74.8298 57.0467 74.2049 55.8341 72.8989V74.5905H52.2087V51.1639H55.8341V58.8144C57.0052 57.557 58.2484 56.9211 59.5817 56.9211C61.024 56.9211 61.9945 57.5836 62.4781 58.8903C62.7219 59.5925 62.845 60.7466 62.845 62.3993V69.3509ZM76.5288 66.4389H69.2773V69.5328C69.2773 71.1485 69.8833 71.9553 71.1296 71.9553C72.0224 71.9553 72.5421 71.5321 72.7491 70.687C72.7828 70.5154 72.8306 69.8125 72.8306 68.5441H76.5296V69.0056C76.5296 70.0251 76.4849 70.7273 76.452 71.0432C76.3305 71.7434 76.0452 72.3786 75.6055 72.9379C74.6013 74.2056 73.1136 74.8305 71.2197 74.8305C69.3228 74.8305 67.8789 74.235 66.8309 73.0432C66.0619 72.1694 65.6669 70.7936 65.6669 68.9386V62.8252C65.6669 60.9593 66.0172 59.5945 66.7878 58.7125C67.835 57.518 69.2781 56.9231 71.1304 56.9231C72.9497 56.9231 74.392 57.518 75.4079 58.7125C76.1675 59.5945 76.5304 60.9593 76.5304 62.8252V66.4389H76.5288Z" fill="white"/>
<path d="M71.0974 59.7689C69.8856 59.7689 69.2781 60.5764 69.2781 62.19V63.8051H72.9034V62.19C72.9027 60.5764 72.2967 59.7689 71.0974 59.7689Z" fill="white"/>
<path d="M57.6417 59.7689C57.0444 59.7689 56.4392 60.015 55.8333 60.5381V71.1766C56.4385 71.7058 57.0444 71.956 57.6417 71.956C58.6874 71.956 59.2188 71.1766 59.2188 69.6005V62.1504C59.2188 60.5764 58.6874 59.7689 57.6417 59.7689Z" fill="white"/>
<path d="M59.6672 43.9128C61.0037 43.9128 62.3943 43.2044 63.853 41.7466V43.6707H67.5176V26.0307H63.853V39.5128C63.0409 40.5138 62.2712 41.0089 61.5383 41.0089C61.0476 41.0089 60.7591 40.7559 60.6792 40.2602C60.6345 40.1556 60.6345 39.7665 60.6345 39.0178V26.0307H56.9817V39.9791C56.9817 41.2249 57.104 42.068 57.3062 42.602C57.6746 43.4957 58.4875 43.9128 59.6672 43.9128Z" fill="white"/>
<path d="M34.1563 34.0839V43.6707H38.2199V34.0839L43.108 20H38.999L36.2265 29.2956L33.3419 20H29.0659C29.9227 22.1942 30.8139 24.3992 31.6707 26.5954C32.9743 29.8966 33.7879 32.3854 34.1563 34.0839Z" fill="white"/>
<path d="M48.5543 43.9127C50.3902 43.9127 51.8168 43.3104 52.8288 42.107C53.5977 41.2242 53.9661 39.8335 53.9661 37.9587V31.7817C53.9661 29.8959 53.5985 28.5175 52.8288 27.6265C51.8168 26.4197 50.3909 25.8173 48.5543 25.8173C46.7279 25.8173 45.3021 26.4197 44.2878 27.6265C43.5094 28.5175 43.141 29.8959 43.141 31.7817V37.9587C43.141 39.8335 43.5094 41.2242 44.2878 42.107C45.3013 43.3104 46.7279 43.9127 48.5543 43.9127ZM46.8055 31.141C46.8055 29.5089 47.3731 28.6952 48.5543 28.6952C49.7356 28.6952 50.3016 29.5082 50.3016 31.141V38.561C50.3016 40.1932 49.7356 41.0095 48.5543 41.0095C47.3731 41.0095 46.8055 40.1932 46.8055 38.561V31.141Z" fill="white"/>
</svg>
